<svg xmlns="http://www.w3.org/2000/svg" width="65" height="65" viewBox="0 0 65 65" fill="none"><path d="M41.2181 63.0957H11.6951V11.2363H37.8362C38.362 11.2363 38.7883 10.8101 38.7883 10.2842C38.7883 9.75821 38.362 9.33203 37.8362 9.33203H7.6123C4.28728 9.33203 1.58203 12.0373 1.58203 15.3623V58.9697C1.58203 62.2947 4.28728 65 7.6123 65H41.2181C41.7439 65 42.1702 64.5738 42.1702 64.0478C42.1702 63.5218 41.7439 63.0957 41.2181 63.0957ZM3.48633 58.9697V15.3623C3.48633 13.0872 5.3373 11.2363 7.6123 11.2363H9.79082V63.0957H7.6123C5.33718 63.0957 3.48633 61.2448 3.48633 58.9697Z" fill="#FFB606"></path><path d="M46.71 26.1289C47.2358 26.1289 47.6621 25.7027 47.6621 25.1768V20.835C47.6621 20.309 47.2358 19.8828 46.71 19.8828C46.1841 19.8828 45.7578 20.309 45.7578 20.835V25.1768C45.7578 25.7027 46.184 26.1289 46.71 26.1289Z" fill="#FFB606"></path><path d="M36.8209 17.9258H20.6318C19.1268 17.9258 17.9023 19.1502 17.9023 20.6553V27.7407C17.9023 29.2457 19.1268 30.4701 20.6318 30.4701H36.8209C38.3259 30.4701 39.5504 29.2457 39.5504 27.7407V20.6553C39.5504 19.1502 38.3259 17.9258 36.8209 17.9258ZM37.6461 27.7407C37.6461 28.1957 37.2759 28.5658 36.8209 28.5658H20.6318C20.1768 28.5658 19.8066 28.1957 19.8066 27.7407V20.6553C19.8066 20.2003 20.1768 19.8301 20.6318 19.8301H36.8209C37.2759 19.8301 37.6461 20.2003 37.6461 20.6553V27.7407Z" fill="#FFB606"></path><path d="M24.4463 23.2461H22.8154C22.2896 23.2461 21.8633 23.6723 21.8633 24.1982C21.8633 24.7242 22.2896 25.1504 22.8154 25.1504H24.4463C24.9721 25.1504 25.3984 24.7242 25.3984 24.1982C25.3984 23.6723 24.9721 23.2461 24.4463 23.2461Z" fill="#FFB606"></path><path d="M29.5418 23.2461H27.9111C27.3853 23.2461 26.959 23.6723 26.959 24.1982C26.959 24.7242 27.3853 25.1504 27.9111 25.1504H29.5418C30.0677 25.1504 30.494 24.7242 30.494 24.1982C30.494 23.6723 30.0677 23.2461 29.5418 23.2461Z" fill="#FFB606"></path><path d="M34.6375 23.2461H33.0068C32.481 23.2461 32.0547 23.6723 32.0547 24.1982C32.0547 24.7242 32.481 25.1504 33.0068 25.1504H34.6375C35.1634 25.1504 35.5897 24.7242 35.5897 24.1982C35.5897 23.6723 35.1635 23.2461 34.6375 23.2461Z" fill="#FFB606"></path><path d="M60.4793 0H44.1748C42.5566 0 41.2402 1.31638 41.2402 2.93452V16.6296C41.2402 17.606 41.8301 18.4611 42.7427 18.8079C43.0168 18.9121 43.2995 18.9627 43.5786 18.9627C44.2288 18.9627 44.859 18.6881 45.3129 18.1773V18.1771L46.4231 16.9273C46.6185 16.7074 46.8992 16.5812 47.1933 16.5812H60.4793C62.0975 16.5812 63.4139 15.2648 63.4139 13.6467V2.93439C63.4139 1.31638 62.0975 0 60.4793 0V0ZM61.5096 13.6468C61.5096 14.2149 61.0475 14.6771 60.4793 14.6771H47.1934C46.3556 14.6771 45.5559 15.0362 44.9994 15.6627L43.8891 16.9127C43.7193 17.1038 43.5218 17.0669 43.4191 17.0278C43.3166 16.9889 43.1444 16.8853 43.1444 16.6296V2.93452C43.1444 2.36641 43.6066 1.9043 44.1746 1.9043H60.4792C61.0473 1.9043 61.5094 2.36653 61.5094 2.93452V13.6468H61.5096Z" fill="#FFB606"></path><path d="M54.7517 6.39042L52.7766 5.04675C51.9926 4.5133 50.9845 4.45718 50.1463 4.90114C49.3079 5.34471 48.7871 6.20939 48.7871 7.15773V9.84533C48.7871 10.7938 49.3079 11.6583 50.1463 12.1019C50.5222 12.3009 50.9322 12.3995 51.341 12.3995C51.8436 12.3995 52.3441 12.2505 52.7766 11.9563L54.7517 10.6126C55.4511 10.1367 55.8687 9.34742 55.8687 8.50153C55.8687 7.65564 55.4513 6.86637 54.7517 6.39042ZM53.6805 9.03816L51.7054 10.3818C51.4138 10.5803 51.1407 10.4737 51.0367 10.4189C50.9329 10.3639 50.6913 10.1981 50.6913 9.84533V7.15773C50.6913 6.80505 50.9329 6.63913 51.0367 6.58416C51.0952 6.55331 51.2072 6.50608 51.3461 6.50608C51.4539 6.50608 51.5779 6.53452 51.7054 6.62123L53.6805 7.9649C53.9368 8.13933 53.9644 8.39819 53.9644 8.50153C53.9644 8.60487 53.9368 8.86373 53.6805 9.03816Z" fill="#FFB606"></path><path d="M51.2173 36.5108H50.247V30.3777C50.247 28.9665 49.0989 27.8184 47.6876 27.8184H45.9949C44.5837 27.8184 43.4355 28.9665 43.4355 30.3777V60.2226C43.4355 61.1866 43.7099 62.1253 44.229 62.9377L44.8499 63.9092C45.2864 64.5921 46.0307 64.9998 46.8413 64.9998C47.6518 64.9998 48.3961 64.5921 48.8326 63.9092L49.4535 62.9375C49.9725 62.1254 50.247 61.1866 50.247 60.2226V38.4151H51.2173C51.6222 38.4151 51.9517 38.7446 51.9517 39.1496V46.7928C51.9517 47.3187 52.378 47.7449 52.9038 47.7449C53.4297 47.7449 53.856 47.3187 53.856 46.7928V39.1496C53.8561 37.6946 52.6723 36.5108 51.2173 36.5108ZM45.34 33.8715H48.3427V57.3122H45.34V33.8715ZM45.34 30.3777C45.34 30.0164 45.6337 29.7227 45.995 29.7227H47.6877C48.0489 29.7227 48.3428 30.0164 48.3428 30.3777V31.9672H45.3401V30.3777H45.34ZM48.3427 60.2226C48.3427 60.8225 48.1719 61.4066 47.8489 61.9121L47.228 62.8837C47.1103 63.0679 46.9353 63.0955 46.8414 63.0955C46.7475 63.0955 46.5724 63.0679 46.4547 62.8837L45.8338 61.9123C45.5108 61.4067 45.3401 60.8225 45.3401 60.2226V59.2164H48.3428V60.2226H48.3427Z" fill="#FFB606"></path></svg>